<?xml version="1.0" encoding="UTF-8" standalone="no"?>
<!-- Created with Inkscape (http://www.inkscape.org/) -->

<svg
   xmlns:dc="http://purl.org/dc/elements/1.1/"
   xmlns:cc="http://creativecommons.org/ns#"
   xmlns:rdf="http://www.w3.org/1999/02/22-rdf-syntax-ns#"
   xmlns:svg="http://www.w3.org/2000/svg"
   xmlns="http://www.w3.org/2000/svg"
   xmlns:sodipodi="http://sodipodi.sourceforge.net/DTD/sodipodi-0.dtd"
   xmlns:inkscape="http://www.inkscape.org/namespaces/inkscape"
   width="96.696274mm"
   height="15.122593mm"
   viewBox="0 0 96.696274 15.122593"
   version="1.1"
   id="svg8"
   inkscape:version="0.92.4 5da689c313, 2019-01-14"
   sodipodi:docname="drawing.svg">
  <defs
     id="defs2" />
  <sodipodi:namedview
     id="base"
     pagecolor="#ffffff"
     bordercolor="#666666"
     borderopacity="1.0"
     inkscape:pageopacity="0.0"
     inkscape:pageshadow="2"
     inkscape:zoom="0.98994949"
     inkscape:cx="229.26585"
     inkscape:cy="-3.3893418"
     inkscape:document-units="mm"
     inkscape:current-layer="text3715"
     showgrid="false"
     inkscape:window-width="1517"
     inkscape:window-height="816"
     inkscape:window-x="0"
     inkscape:window-y="52"
     inkscape:window-maximized="1"
     inkscape:snap-text-baseline="false"
     fit-margin-top="0"
     fit-margin-left="0"
     fit-margin-right="0"
     fit-margin-bottom="0" />
  <metadata
     id="metadata5">
    <rdf:RDF>
      <cc:Work
         rdf:about="">
        <dc:format>image/svg+xml</dc:format>
        <dc:type
           rdf:resource="http://purl.org/dc/dcmitype/StillImage" />
        <dc:title></dc:title>
      </cc:Work>
    </rdf:RDF>
  </metadata>
  <g
     inkscape:label="Layer 1"
     inkscape:groupmode="layer"
     id="layer1"
     transform="translate(-38.682319,-25.849332)">
    <g
       aria-label="FreeLeechRadio"
       style="font-style:normal;font-variant:normal;font-weight:bold;font-stretch:normal;font-size:16.93333244px;line-height:1.25;font-family:Oswald;-inkscape-font-specification:'Oswald, Bold';font-variant-ligatures:normal;font-variant-caps:normal;font-variant-numeric:normal;font-feature-settings:normal;text-align:start;letter-spacing:0px;word-spacing:0px;writing-mode:lr-tb;text-anchor:start;fill:#000000;fill-opacity:1;stroke:none;stroke-width:0.26458332"
       id="text3715">
      <path
         d="M 38.682319,40.732143 V 25.849332 h 6.20944 v 2.067057 h -3.199804 v 4.051432 h 2.265494 v 2.116667 h -2.265494 v 6.647655 z"
         style="font-style:normal;font-variant:normal;font-weight:bold;font-stretch:normal;font-size:16.93333244px;font-family:Oswald;-inkscape-font-specification:'Oswald, Bold';font-variant-ligatures:normal;font-variant-caps:normal;font-variant-numeric:normal;font-feature-settings:normal;text-align:start;letter-spacing:-0.49741665px;writing-mode:lr-tb;text-anchor:start;fill:#87de87"
         id="path52"
         inkscape:connector-curvature="0" />
      <path
         d="M 45.15502,40.732143 V 29.942105 h 2.769856 v 0.876432 q 0.636654,-1.033528 1.488281,-1.033528 0.239779,0 0.752409,0.08268 v 2.348177 q -0.768945,-0.08268 -1.083138,-0.08268 -0.570507,0 -0.868164,0.355533 -0.289388,0.347266 -0.289388,1.000456 v 7.242968 z"
         style="font-style:normal;font-variant:normal;font-weight:bold;font-stretch:normal;font-size:16.93333244px;font-family:Oswald;-inkscape-font-specification:'Oswald, Bold';font-variant-ligatures:normal;font-variant-caps:normal;font-variant-numeric:normal;font-feature-settings:normal;text-align:start;letter-spacing:-0.49741665px;writing-mode:lr-tb;text-anchor:start;fill:#87de87"
         id="path54"
         inkscape:connector-curvature="0" />
      <path
         d="m 52.901027,34.109292 h 1.083138 v -1.488281 q 0,-0.818555 -0.553971,-0.818555 -0.529167,0 -0.529167,0.818555 z m -2.786393,3.819922 v -4.588867 q 0,-1.719792 0.818555,-2.678906 0.818554,-0.967383 2.497005,-0.967383 1.686718,0 2.497005,0.959115 0.818555,0.959114 0.818555,2.687174 v 2.232422 h -3.844727 v 2.389518 q 0,0.909505 0.529167,0.909505 0.578776,0 0.578776,-0.975651 v -1.182357 h 2.736784 v 1.21543 q 0,1.347721 -0.975651,2.199349 -0.975651,0.843359 -2.339909,0.843359 -1.364258,0 -2.339909,-0.851628 -0.975651,-0.851627 -0.975651,-2.19108 z"
         style="font-style:normal;font-variant:normal;font-weight:bold;font-stretch:normal;font-size:16.93333244px;font-family:Oswald;-inkscape-font-specification:'Oswald, Bold';font-variant-ligatures:normal;font-variant-caps:normal;font-variant-numeric:normal;font-feature-settings:normal;text-align:start;letter-spacing:-0.49741665px;writing-mode:lr-tb;text-anchor:start;fill:#87de87"
         id="path56"
         inkscape:connector-curvature="0" />
      <path
         d="m 60.175745,34.109292 h 1.083138 v -1.488281 q 0,-0.818555 -0.553971,-0.818555 -0.529167,0 -0.529167,0.818555 z m -2.786393,3.819922 v -4.588867 q 0,-1.719792 0.818555,-2.678906 0.818555,-0.967383 2.497005,-0.967383 1.686719,0 2.497005,0.959115 0.818555,0.959114 0.818555,2.687174 v 2.232422 h -3.844727 v 2.389518 q 0,0.909505 0.529167,0.909505 0.578776,0 0.578776,-0.975651 v -1.182357 h 2.736784 v 1.21543 q 0,1.347721 -0.975651,2.199349 -0.975651,0.843359 -2.339909,0.843359 -1.364258,0 -2.339909,-0.851628 -0.975651,-0.851627 -0.975651,-2.19108 z"
         style="font-style:normal;font-variant:normal;font-weight:bold;font-stretch:normal;font-size:16.93333244px;font-family:Oswald;-inkscape-font-specification:'Oswald, Bold';font-variant-ligatures:normal;font-variant-caps:normal;font-variant-numeric:normal;font-feature-settings:normal;text-align:start;letter-spacing:-0.49741665px;writing-mode:lr-tb;text-anchor:start;fill:#87de87"
         id="path58"
         inkscape:connector-curvature="0" />
      <path
         d="M 64.903848,40.732143 V 25.849332 h 3.009636 v 12.815754 h 2.960025 v 2.067057 z"
         style="font-style:normal;font-variant:normal;font-weight:bold;font-stretch:normal;font-size:16.93333244px;font-family:Oswald;-inkscape-font-specification:'Oswald, Bold';font-variant-ligatures:normal;font-variant-caps:normal;font-variant-numeric:normal;font-feature-settings:normal;text-align:start;letter-spacing:-0.49741665px;writing-mode:lr-tb;text-anchor:start;fill:#87deaa"
         id="path60"
         inkscape:connector-curvature="0" />
      <path
         d="m 73.881823,34.109292 h 1.083138 v -1.488281 q 0,-0.818555 -0.553971,-0.818555 -0.529167,0 -0.529167,0.818555 z m -2.786393,3.819922 v -4.588867 q 0,-1.719792 0.818555,-2.678906 0.818554,-0.967383 2.497005,-0.967383 1.686718,0 2.497005,0.959115 0.818554,0.959114 0.818554,2.687174 v 2.232422 h -3.844726 v 2.389518 q 0,0.909505 0.529167,0.909505 0.578776,0 0.578776,-0.975651 v -1.182357 h 2.736783 v 1.21543 q 0,1.347721 -0.975651,2.199349 -0.975651,0.843359 -2.339908,0.843359 -1.364258,0 -2.339909,-0.851628 -0.975651,-0.851627 -0.975651,-2.19108 z"
         style="font-style:normal;font-variant:normal;font-weight:bold;font-stretch:normal;font-size:16.93333244px;font-family:Oswald;-inkscape-font-specification:'Oswald, Bold';font-variant-ligatures:normal;font-variant-caps:normal;font-variant-numeric:normal;font-feature-settings:normal;text-align:start;letter-spacing:-0.49741665px;writing-mode:lr-tb;text-anchor:start;fill:#87deaa"
         id="path62"
         inkscape:connector-curvature="0" />
      <path
         d="m 81.156542,34.109292 h 1.083138 v -1.488281 q 0,-0.818555 -0.553971,-0.818555 -0.529167,0 -0.529167,0.818555 z m -2.786393,3.819922 v -4.588867 q 0,-1.719792 0.818555,-2.678906 0.818554,-0.967383 2.497005,-0.967383 1.686719,0 2.497005,0.959115 0.818555,0.959114 0.818555,2.687174 v 2.232422 h -3.844727 v 2.389518 q 0,0.909505 0.529167,0.909505 0.578776,0 0.578776,-0.975651 v -1.182357 h 2.736784 v 1.21543 q 0,1.347721 -0.975651,2.199349 -0.975651,0.843359 -2.339909,0.843359 -1.364258,0 -2.339909,-0.851628 -0.975651,-0.851627 -0.975651,-2.19108 z"
         style="font-style:normal;font-variant:normal;font-weight:bold;font-stretch:normal;font-size:16.93333244px;font-family:Oswald;-inkscape-font-specification:'Oswald, Bold';font-variant-ligatures:normal;font-variant-caps:normal;font-variant-numeric:normal;font-feature-settings:normal;text-align:start;letter-spacing:-0.49741665px;writing-mode:lr-tb;text-anchor:start;fill:#87deaa"
         id="path64"
         inkscape:connector-curvature="0" />
      <path
         d="m 85.644865,37.970555 v -4.630208 q 0,-1.719792 0.818554,-2.678906 0.818555,-0.967383 2.497005,-0.967383 1.686719,0 2.497005,0.959115 0.818555,0.959114 0.818555,2.687174 v 0.942578 H 89.5392 v -1.231966 q 0,-0.644922 -0.115755,-0.942578 -0.107487,-0.305925 -0.463021,-0.305925 -0.529166,0 -0.529166,0.818555 v 5.341276 q 0,0.909505 0.529166,0.909505 0.198438,0 0.314193,-0.08268 0.124023,-0.08268 0.173633,-0.28112 0.05788,-0.198438 0.07441,-0.405143 0.01654,-0.214974 0.01654,-0.595313 V 36.35825 h 2.736784 v 1.612305 q 0,0.892969 -0.463021,1.595768 -0.463021,0.694531 -1.215429,1.050065 -0.752409,0.355534 -1.63711,0.355534 -1.364257,0 -2.339908,-0.826823 -0.975651,-0.835091 -0.975651,-2.174544 z"
         style="font-style:normal;font-variant:normal;font-weight:bold;font-stretch:normal;font-size:16.93333244px;font-family:Oswald;-inkscape-font-specification:'Oswald, Bold';font-variant-ligatures:normal;font-variant-caps:normal;font-variant-numeric:normal;font-feature-settings:normal;text-align:start;letter-spacing:-0.49741665px;writing-mode:lr-tb;text-anchor:start;fill:#87deaa"
         id="path66"
         inkscape:connector-curvature="0" />
      <path
         d="M 92.952655,40.732143 V 25.849332 h 2.786393 v 4.861718 q 0.405144,-0.454752 0.959115,-0.735872 0.562239,-0.28112 1.157552,-0.28112 0.570508,0 1.016992,0.363802 0.454753,0.363802 0.669727,0.892969 0.223242,0.529166 0.223242,1.091406 v 8.689908 h -2.786393 v -7.962304 q 0,-0.03307 0,-0.14056 0.0083,-0.115755 0,-0.181901 0,-0.07441 -0.0083,-0.181901 0,-0.115755 -0.0248,-0.181901 -0.02481,-0.06615 -0.06615,-0.14056 -0.04134,-0.07441 -0.115755,-0.107487 -0.06615,-0.03307 -0.165365,-0.03307 -0.165364,0 -0.355534,0.132292 -0.190169,0.132292 -0.272851,0.223242 -0.08268,0.09095 -0.231511,0.264584 v 8.309569 z"
         style="font-style:normal;font-variant:normal;font-weight:bold;font-stretch:normal;font-size:16.93333244px;font-family:Oswald;-inkscape-font-specification:'Oswald, Bold';font-variant-ligatures:normal;font-variant-caps:normal;font-variant-numeric:normal;font-feature-settings:normal;text-align:start;letter-spacing:-0.49741665px;writing-mode:lr-tb;text-anchor:start;fill:#87deaa"
         id="path68"
         inkscape:connector-curvature="0" />
      <path
         d="m 103.88193,32.042235 h 0.8599 q 0.34727,0 0.59531,-0.23151 0.24805,-0.231511 0.35554,-0.587045 0.11575,-0.355533 0.15709,-0.65319 0.0496,-0.297656 0.0496,-0.562239 0,-0.264584 -0.0413,-0.545703 -0.0331,-0.28112 -0.13229,-0.620118 -0.091,-0.347265 -0.31419,-0.562239 -0.21498,-0.223242 -0.52917,-0.223242 h -1.00046 z m -3.00963,8.689908 V 25.849332 h 3.27422 q 1.11621,0 1.95957,0.214974 0.85163,0.206705 1.48828,0.661458 0.63665,0.446484 0.96738,1.21543 0.33073,0.760677 0.33073,1.827278 0,0.463021 -0.0331,0.826823 -0.0331,0.363802 -0.1571,0.835091 -0.11575,0.463021 -0.32246,0.826823 -0.20671,0.355534 -0.59531,0.702799 -0.38861,0.347266 -0.91778,0.578776 1.33946,4.24987 2.33165,7.193359 h -3.11713 L 104.378,33.877782 h -0.4961 v 6.854361 z"
         style="font-style:normal;font-variant:normal;font-weight:bold;font-stretch:normal;font-size:16.93333244px;font-family:Oswald;-inkscape-font-specification:'Oswald, Bold';font-variant-ligatures:normal;font-variant-caps:normal;font-variant-numeric:normal;font-feature-settings:normal;text-align:start;letter-spacing:-0.49741665px;writing-mode:lr-tb;text-anchor:start;fill:#5fd3bc"
         id="path70"
         inkscape:connector-curvature="0" />
      <path
         d="m 113.33119,38.293016 v -2.654101 q -1.37252,1.107942 -1.37252,2.430859 0,0.330729 0.12402,0.570508 0.13229,0.23151 0.43822,0.23151 0.17363,0 0.339,-0.107487 0.17363,-0.115755 0.24804,-0.198438 0.0744,-0.08268 0.22324,-0.272851 z m 0.56224,2.439127 -0.27285,-1.11621 q -0.23978,0.752408 -0.78548,1.058333 -0.5457,0.297656 -1.35599,0.297656 -0.59531,0 -1.0418,-0.23151 -0.44648,-0.231511 -0.7028,-0.620118 -0.24804,-0.396875 -0.37207,-0.843359 -0.11575,-0.454752 -0.11575,-0.950846 0,-0.56224 0.11575,-1.041797 0.11576,-0.479557 0.28939,-0.843359 0.1819,-0.372071 0.4961,-0.711068 0.32246,-0.338997 0.62011,-0.570508 0.30593,-0.239778 0.77722,-0.487825 0.47129,-0.256315 0.84336,-0.42168 0.37207,-0.173633 0.93431,-0.405143 v -0.909505 q 0,-0.570508 -0.14056,-0.851628 -0.14056,-0.28112 -0.47956,-0.28112 -0.23151,0 -0.38034,0.09922 -0.14056,0.09095 -0.19844,0.28112 -0.0579,0.190169 -0.0744,0.347265 -0.0165,0.148829 -0.0165,0.405144 v 0.611849 h -2.70371 q 0,-1.860352 0.93431,-2.852539 0.93431,-1.000456 2.71198,-1.000456 1.24023,0 2.17454,0.901237 0.93431,0.901237 0.93431,2.141471 v 5.126302 q 0,1.331185 0.35554,2.869075 z"
         style="font-style:normal;font-variant:normal;font-weight:bold;font-stretch:normal;font-size:16.93333244px;font-family:Oswald;-inkscape-font-specification:'Oswald, Bold';font-variant-ligatures:normal;font-variant-caps:normal;font-variant-numeric:normal;font-feature-settings:normal;text-align:start;letter-spacing:-0.49741665px;writing-mode:lr-tb;text-anchor:start;fill:#5fd3bc"
         id="path72"
         inkscape:connector-curvature="0" />
      <path
         d="m 116.99269,38.665086 v -6.374804 q 0,-1.02526 0.64493,-1.810742 0.64492,-0.785482 1.59576,-0.785482 0.5209,0 0.98392,0.272852 0.47129,0.264583 0.81029,0.702799 v -4.820377 h 2.78639 v 14.882811 h -2.78639 v -0.810286 q -0.33073,0.487825 -0.82682,0.768945 -0.4961,0.28112 -1.05007,0.28112 -0.91777,0 -1.53789,-0.686263 -0.62012,-0.694531 -0.62012,-1.620573 z m 4.0349,-0.388607 v -5.853905 q -0.47129,-0.620118 -0.78548,-0.620118 -0.46302,0 -0.46302,0.711068 v 5.581054 q 0,0.223243 0.0165,0.372071 0.0248,0.14056 0.1323,0.272851 0.11575,0.132292 0.31419,0.132292 0.35553,0 0.78548,-0.595313 z"
         style="font-style:normal;font-variant:normal;font-weight:bold;font-stretch:normal;font-size:16.93333244px;font-family:Oswald;-inkscape-font-specification:'Oswald, Bold';font-variant-ligatures:normal;font-variant-caps:normal;font-variant-numeric:normal;font-feature-settings:normal;text-align:start;letter-spacing:-0.49741665px;writing-mode:lr-tb;text-anchor:start;fill:#5fd3bc"
         id="path74"
         inkscape:connector-curvature="0" />
      <path
         d="m 124.8958,28.999527 v -2.604492 h 2.7864 v 2.604492 z m 0,11.732616 V 29.942105 h 2.7864 v 10.790038 z"
         style="font-style:normal;font-variant:normal;font-weight:bold;font-stretch:normal;font-size:16.93333244px;font-family:Oswald;-inkscape-font-specification:'Oswald, Bold';font-variant-ligatures:normal;font-variant-caps:normal;font-variant-numeric:normal;font-feature-settings:normal;text-align:start;letter-spacing:-0.49741665px;writing-mode:lr-tb;text-anchor:start;fill:#5fd3bc"
         id="path76"
         inkscape:connector-curvature="0" />
      <path
         d="m 132.617,37.962287 v -5.341276 q 0,-0.818555 -0.63665,-0.818555 -0.57051,0 -0.57051,0.818555 v 5.341276 q 0,0.181901 0.008,0.305924 0.0165,0.115755 0.0661,0.28112 0.0496,0.157096 0.17363,0.239779 0.12402,0.08268 0.32246,0.08268 0.63665,0 0.63665,-0.909505 z m -3.99355,-0.03307 V 33.34035 q 0,-1.72806 0.81029,-2.678906 0.81855,-0.959115 2.54661,-0.959115 1.72806,0 2.56315,0.959115 0.83509,0.950846 0.83509,2.678906 v 4.588867 q 0,1.347721 -1.00045,2.199349 -1.00046,0.843359 -2.39779,0.843359 -0.90124,0 -1.66191,-0.363802 -0.76068,-0.37207 -1.23197,-1.07487 -0.46302,-0.711067 -0.46302,-1.604036 z"
         style="font-style:normal;font-variant:normal;font-weight:bold;font-stretch:normal;font-size:16.93333244px;font-family:Oswald;-inkscape-font-specification:'Oswald, Bold';font-variant-ligatures:normal;font-variant-caps:normal;font-variant-numeric:normal;font-feature-settings:normal;text-align:start;letter-spacing:-0.49741665px;writing-mode:lr-tb;text-anchor:start;fill:#5fd3bc"
         id="path78"
         inkscape:connector-curvature="0" />
    </g>
  </g>
</svg>
