<?xml version="1.0" encoding="UTF-8"?>
<svg width="31.816mm" height="5.6497mm" version="1.1" viewBox="0 0 31.816 5.6497" xmlns="http://www.w3.org/2000/svg">
 <g transform="translate(-20.59 -29.89)">
  <g fill="#6c91c2" style="font-feature-settings:normal;font-variant-caps:normal;font-variant-ligatures:normal;font-variant-numeric:normal" aria-label="info@flr.one">
   <path d="m21.556 30.866c0.27093 0 0.44591-0.16933 0.44591-0.44027s-0.17498-0.44591-0.44591-0.44591-0.44027 0.17498-0.44027 0.44591 0.16933 0.44027 0.44027 0.44027zm-0.36124 3.2512h0.71684v-2.7432h-0.71684z" style="font-feature-settings:normal;font-variant-caps:normal;font-variant-ligatures:normal;font-variant-numeric:normal"/>
   <path d="m22.596 34.118h0.72249v-1.9643c0.15804-0.12982 0.34996-0.19756 0.5588-0.19756 0.34996 0 0.52493 0.19756 0.52493 0.57009v1.5917h0.72249v-1.6933c0-0.67733-0.38382-1.095-0.99907-1.095-0.33302 0-0.64347 0.11853-0.88618 0.34431l-0.12982-0.29916h-0.51364z" style="font-feature-settings:normal;font-variant-caps:normal;font-variant-ligatures:normal;font-variant-numeric:normal"/>
   <path d="m25.866 34.118h0.69427v-2.1675h0.79022v-0.57573h-0.79022v-0.43462c0-0.29351 0.15804-0.45156 0.4572-0.45156 0.14111 0 0.31609 0.02822 0.41769 0.08467l0.14676-0.51929c-0.17498-0.1016-0.38947-0.16369-0.62089-0.16369-0.65476 0-1.095 0.44591-1.095 1.112v0.37253h-0.42333v0.57573h0.42333z" style="font-feature-settings:normal;font-variant-caps:normal;font-variant-ligatures:normal;font-variant-numeric:normal"/>
   <path d="m28.836 34.174c0.86924 0 1.4506-0.59267 1.4506-1.4732 0-0.84102-0.53622-1.3829-1.3603-1.3829-0.86924 0-1.4506 0.58702-1.4506 1.4732 0 0.83538 0.53058 1.3829 1.3603 1.3829zm0.06209-0.6096c-0.42333 0-0.69427-0.32738-0.69427-0.83538 0-0.49671 0.24836-0.80151 0.65476-0.80151 0.42333 0 0.69991 0.33302 0.69991 0.84667 0 0.48542-0.254 0.79022-0.6604 0.79022z" style="font-feature-settings:normal;font-variant-caps:normal;font-variant-ligatures:normal;font-variant-numeric:normal"/>
   <path d="m32.919 33.875c0.3048 0 0.58702-0.12418 0.80716-0.32738 0.1524 0.22013 0.41204 0.34996 0.72813 0.34996 0.69427 0 1.1571-0.63218 1.1571-1.5635 0-1.3264-0.93698-2.19-2.3312-2.19-1.5409 0-2.5852 1.0386-2.5852 2.5456 0 1.4506 0.97649 2.382 2.3707 2.382 0.42898 0 0.81844-0.09031 1.1515-0.24836l-0.1524-0.47413c-0.27093 0.12982-0.60396 0.19756-0.93698 0.19756-1.095 0-1.8344-0.75636-1.8344-1.8909 0-1.1571 0.77329-1.9643 1.936-1.9643 1.0837 0 1.7836 0.70556 1.7836 1.7667 0 0.55316-0.19756 0.94827-0.49671 0.94827-0.1524 0-0.27093-0.11853-0.27093-0.31609l0.11289-1.6425h-0.53622l-0.06773 0.2032c-0.13547-0.17498-0.34996-0.27093-0.62653-0.27093-0.66604 0-1.2192 0.5588-1.2192 1.3547 0 0.68298 0.41204 1.1402 1.0104 1.1402zm-0.28222-1.2079c0-0.44027 0.2032-0.75636 0.51364-0.75636 0.20884 0 0.41204 0.14676 0.49107 0.37253l-0.0508 0.79587c-0.11853 0.15804-0.31044 0.25964-0.47978 0.25964-0.28787 0-0.47413-0.25964-0.47413-0.67169z" style="font-feature-settings:normal;font-variant-caps:normal;font-variant-ligatures:normal;font-variant-numeric:normal"/>
   <path d="m36.329 34.118h0.69427v-2.1675h0.79022v-0.57573h-0.79022v-0.43462c0-0.29351 0.15804-0.45156 0.4572-0.45156 0.14111 0 0.31609 0.02822 0.41769 0.08467l0.14676-0.51929c-0.17498-0.1016-0.38947-0.16369-0.62089-0.16369-0.65476 0-1.095 0.44591-1.095 1.112v0.37253h-0.42333v0.57573h0.42333zm2.6472 0.03951c0.17498 0 0.37253-0.03387 0.52493-0.1016l-0.1524-0.47978c-0.06209 0.02258-0.12418 0.03387-0.17498 0.03387-0.16369 0-0.254-0.11289-0.254-0.3048v-3.3584h-0.7112v3.4488c0 0.47413 0.28787 0.762 0.76764 0.762z" style="font-feature-settings:normal;font-variant-caps:normal;font-variant-ligatures:normal;font-variant-numeric:normal"/>
   <path d="m39.674 34.118h0.71684v-1.8119c0.16369-0.19756 0.39511-0.31044 0.64911-0.31044 0.12982 0 0.26529 0.02822 0.37253 0.07902l0.16369-0.63218c-0.12418-0.06209-0.27658-0.09596-0.42333-0.09596-0.32738 0-0.63218 0.16369-0.84102 0.43462l-0.06773-0.4064h-0.57009z" style="font-feature-settings:normal;font-variant-caps:normal;font-variant-ligatures:normal;font-variant-numeric:normal"/>
   <path d="m42.26 34.174c0.28787 0 0.47978-0.20884 0.47978-0.47978 0-0.28787-0.19191-0.49671-0.47978-0.49671-0.29351 0-0.48542 0.20884-0.48542 0.49671 0 0.27093 0.19191 0.47978 0.48542 0.47978z" style="font-feature-settings:normal;font-variant-caps:normal;font-variant-ligatures:normal;font-variant-numeric:normal"/>
   <path d="m44.486 34.174c0.86924 0 1.4506-0.59267 1.4506-1.4732 0-0.84102-0.53622-1.3829-1.3603-1.3829-0.86924 0-1.4506 0.58702-1.4506 1.4732 0 0.83538 0.53058 1.3829 1.3603 1.3829zm0.06209-0.6096c-0.42333 0-0.69427-0.32738-0.69427-0.83538 0-0.49671 0.24836-0.80151 0.65476-0.80151 0.42333 0 0.69991 0.33302 0.69991 0.84667 0 0.48542-0.254 0.79022-0.6604 0.79022z" style="font-feature-settings:normal;font-variant-caps:normal;font-variant-ligatures:normal;font-variant-numeric:normal"/>
   <path d="m46.406 34.118h0.72249v-1.9643c0.15804-0.12982 0.34996-0.19756 0.5588-0.19756 0.34996 0 0.52493 0.19756 0.52493 0.57009v1.5917h0.72249v-1.6933c0-0.67733-0.38382-1.095-0.99907-1.095-0.33302 0-0.64347 0.11853-0.88618 0.34431l-0.12982-0.29916h-0.51364z" style="font-feature-settings:normal;font-variant-caps:normal;font-variant-ligatures:normal;font-variant-numeric:normal"/>
   <path d="m50.861 34.174c0.32173 0 0.67169-0.06773 0.9652-0.19191l-0.15804-0.49671c-0.22013 0.09031-0.46284 0.14111-0.69427 0.14111-0.49671 0-0.79587-0.23142-0.88053-0.68298h1.778c0.01693-0.11289 0.03387-0.28222 0.03387-0.4064 0-0.75071-0.4572-1.2192-1.191-1.2192-0.81844 0-1.366 0.58138-1.366 1.4337 0 0.88053 0.57573 1.4224 1.5127 1.4224zm-0.19756-2.3029c0.3556 0 0.56444 0.22578 0.56444 0.62089h-1.1515c0.04516-0.4064 0.24836-0.62089 0.58702-0.62089z" style="font-feature-settings:normal;font-variant-caps:normal;font-variant-ligatures:normal;font-variant-numeric:normal"/>
  </g>
  <path d="m20.59 35.44h31.816" fill="none" stroke="#6c91c2" stroke-width=".2"/>
 </g>
</svg>
