<?xml version="1.0" encoding="UTF-8"?>
<svg width="96.696mm" height="15.123mm" version="1.1" viewBox="0 0 96.696 15.123" xmlns="http://www.w3.org/2000/svg">
 <g transform="translate(-38.682 -25.849)">
  <g stroke-width=".26458" style="font-feature-settings:normal;font-variant-caps:normal;font-variant-ligatures:normal;font-variant-numeric:normal" aria-label="FreeLeechRadio">
   <g fill="#00d400">
    <path d="m38.682 40.732v-14.883h6.2094v2.0671h-3.1998v4.0514h2.2655v2.1167h-2.2655v6.6477z" style="font-feature-settings:normal;font-variant-caps:normal;font-variant-ligatures:normal;font-variant-numeric:normal"/>
    <path d="m45.155 40.732v-10.79h2.7699v0.87643q0.63665-1.0335 1.4883-1.0335 0.23978 0 0.75241 0.08268v2.3482q-0.76894-0.08268-1.0831-0.08268-0.57051 0-0.86816 0.35553-0.28939 0.34727-0.28939 1.0005v7.243z" style="font-feature-settings:normal;font-variant-caps:normal;font-variant-ligatures:normal;font-variant-numeric:normal"/>
    <path d="m52.901 34.109h1.0831v-1.4883q0-0.81856-0.55397-0.81856-0.52917 0-0.52917 0.81856zm-2.7864 3.8199v-4.5889q0-1.7198 0.81856-2.6789 0.81855-0.96738 2.497-0.96738 1.6867 0 2.497 0.95912 0.81856 0.95911 0.81856 2.6872v2.2324h-3.8447v2.3895q0 0.9095 0.52917 0.9095 0.57878 0 0.57878-0.97565v-1.1824h2.7368v1.2154q0 1.3477-0.97565 2.1993-0.97565 0.84336-2.3399 0.84336t-2.3399-0.85163q-0.97565-0.85163-0.97565-2.1911z" style="font-feature-settings:normal;font-variant-caps:normal;font-variant-ligatures:normal;font-variant-numeric:normal"/>
    <path d="m60.176 34.109h1.0831v-1.4883q0-0.81856-0.55397-0.81856-0.52917 0-0.52917 0.81856zm-2.7864 3.8199v-4.5889q0-1.7198 0.81856-2.6789 0.81856-0.96738 2.497-0.96738 1.6867 0 2.497 0.95912 0.81856 0.95911 0.81856 2.6872v2.2324h-3.8447v2.3895q0 0.9095 0.52917 0.9095 0.57878 0 0.57878-0.97565v-1.1824h2.7368v1.2154q0 1.3477-0.97565 2.1993-0.97565 0.84336-2.3399 0.84336t-2.3399-0.85163q-0.97565-0.85163-0.97565-2.1911z" style="font-feature-settings:normal;font-variant-caps:normal;font-variant-ligatures:normal;font-variant-numeric:normal"/>
   </g>
   <g fill="#5fd35f">
    <path d="m64.904 40.732v-14.883h3.0096v12.816h2.96v2.0671z" style="font-feature-settings:normal;font-variant-caps:normal;font-variant-ligatures:normal;font-variant-numeric:normal"/>
    <path d="m73.882 34.109h1.0831v-1.4883q0-0.81856-0.55397-0.81856-0.52917 0-0.52917 0.81856zm-2.7864 3.8199v-4.5889q0-1.7198 0.81856-2.6789 0.81855-0.96738 2.497-0.96738 1.6867 0 2.497 0.95912 0.81855 0.95911 0.81855 2.6872v2.2324h-3.8447v2.3895q0 0.9095 0.52917 0.9095 0.57878 0 0.57878-0.97565v-1.1824h2.7368v1.2154q0 1.3477-0.97565 2.1993-0.97565 0.84336-2.3399 0.84336-1.3643 0-2.3399-0.85163-0.97565-0.85163-0.97565-2.1911z" style="font-feature-settings:normal;font-variant-caps:normal;font-variant-ligatures:normal;font-variant-numeric:normal"/>
    <path d="m81.157 34.109h1.0831v-1.4883q0-0.81856-0.55397-0.81856-0.52917 0-0.52917 0.81856zm-2.7864 3.8199v-4.5889q0-1.7198 0.81856-2.6789 0.81855-0.96738 2.497-0.96738 1.6867 0 2.497 0.95912 0.81856 0.95911 0.81856 2.6872v2.2324h-3.8447v2.3895q0 0.9095 0.52917 0.9095 0.57878 0 0.57878-0.97565v-1.1824h2.7368v1.2154q0 1.3477-0.97565 2.1993-0.97565 0.84336-2.3399 0.84336t-2.3399-0.85163q-0.97565-0.85163-0.97565-2.1911z" style="font-feature-settings:normal;font-variant-caps:normal;font-variant-ligatures:normal;font-variant-numeric:normal"/>
    <path d="m85.645 37.971v-4.6302q0-1.7198 0.81855-2.6789 0.81856-0.96738 2.497-0.96738 1.6867 0 2.497 0.95912 0.81856 0.95911 0.81856 2.6872v0.94258h-2.7368v-1.232q0-0.64492-0.11576-0.94258-0.10749-0.30592-0.46302-0.30592-0.52917 0-0.52917 0.81856v5.3413q0 0.9095 0.52917 0.9095 0.19844 0 0.31419-0.08268 0.12402-0.08268 0.17363-0.28112 0.05788-0.19844 0.07441-0.40514 0.01654-0.21497 0.01654-0.59531v-1.1493h2.7368v1.6123q0 0.89297-0.46302 1.5958-0.46302 0.69453-1.2154 1.0501-0.75241 0.35553-1.6371 0.35553-1.3643 0-2.3399-0.82682-0.97565-0.83509-0.97565-2.1745z" style="font-feature-settings:normal;font-variant-caps:normal;font-variant-ligatures:normal;font-variant-numeric:normal"/>
    <path d="m92.953 40.732v-14.883h2.7864v4.8617q0.40514-0.45475 0.95912-0.73587 0.56224-0.28112 1.1576-0.28112 0.57051 0 1.017 0.3638 0.45475 0.3638 0.66973 0.89297 0.22324 0.52917 0.22324 1.0914v8.6899h-2.7864v-7.9623q0-0.03307 0-0.14056 0.0083-0.11576 0-0.1819 0-0.07441-0.0083-0.1819 0-0.11576-0.0248-0.1819-0.02481-0.06615-0.06615-0.14056t-0.11576-0.10749q-0.06615-0.03307-0.16536-0.03307-0.16536 0-0.35553 0.13229t-0.27285 0.22324-0.23151 0.26458v8.3096z" style="font-feature-settings:normal;font-variant-caps:normal;font-variant-ligatures:normal;font-variant-numeric:normal"/>
   </g>
   <g fill="#0a8">
    <path d="m103.88 32.042h0.8599q0.34727 0 0.59531-0.23151 0.24805-0.23151 0.35554-0.58704 0.11575-0.35553 0.15709-0.65319 0.0496-0.29766 0.0496-0.56224t-0.0413-0.5457q-0.0331-0.28112-0.13229-0.62012-0.091-0.34726-0.31419-0.56224-0.21498-0.22324-0.52917-0.22324h-1.0005zm-3.0096 8.6899v-14.883h3.2742q1.1162 0 1.9596 0.21497 0.85163 0.2067 1.4883 0.66146 0.63665 0.44648 0.96738 1.2154 0.33073 0.76068 0.33073 1.8273 0 0.46302-0.0331 0.82682t-0.1571 0.83509q-0.11575 0.46302-0.32246 0.82682-0.20671 0.35553-0.59531 0.7028-0.38861 0.34727-0.91778 0.57878 1.3395 4.2499 2.3316 7.1934h-3.1171l-1.7032-6.8544h-0.4961v6.8544z" style="font-feature-settings:normal;font-variant-caps:normal;font-variant-ligatures:normal;font-variant-numeric:normal"/>
    <path d="m113.33 38.293v-2.6541q-1.3725 1.1079-1.3725 2.4309 0 0.33073 0.12402 0.57051 0.13229 0.23151 0.43822 0.23151 0.17363 0 0.339-0.10749 0.17363-0.11576 0.24804-0.19844 0.0744-0.08268 0.22324-0.27285zm0.56224 2.4391-0.27285-1.1162q-0.23978 0.75241-0.78548 1.0583-0.5457 0.29766-1.356 0.29766-0.59531 0-1.0418-0.23151-0.44648-0.23151-0.7028-0.62012-0.24804-0.39688-0.37207-0.84336-0.11575-0.45475-0.11575-0.95085 0-0.56224 0.11575-1.0418 0.11576-0.47956 0.28939-0.84336 0.1819-0.37207 0.4961-0.71107 0.32246-0.339 0.62011-0.57051 0.30593-0.23978 0.77722-0.48782 0.47129-0.25632 0.84336-0.42168 0.37207-0.17363 0.93431-0.40514v-0.9095q0-0.57051-0.14056-0.85163t-0.47956-0.28112q-0.23151 0-0.38034 0.09922-0.14056 0.09095-0.19844 0.28112-0.0579 0.19017-0.0744 0.34726-0.0165 0.14883-0.0165 0.40514v0.61185h-2.7037q0-1.8604 0.93431-2.8525 0.93431-1.0005 2.712-1.0005 1.2402 0 2.1745 0.90124t0.93431 2.1415v5.1263q0 1.3312 0.35554 2.8691z" style="font-feature-settings:normal;font-variant-caps:normal;font-variant-ligatures:normal;font-variant-numeric:normal"/>
    <path d="m116.99 38.665v-6.3748q0-1.0253 0.64493-1.8107 0.64492-0.78548 1.5958-0.78548 0.5209 0 0.98392 0.27285 0.47129 0.26458 0.81029 0.7028v-4.8204h2.7864v14.883h-2.7864v-0.81029q-0.33073 0.48782-0.82682 0.76894-0.4961 0.28112-1.0501 0.28112-0.91777 0-1.5379-0.68626-0.62012-0.69453-0.62012-1.6206zm4.0349-0.38861v-5.8539q-0.47129-0.62012-0.78548-0.62012-0.46302 0-0.46302 0.71107v5.5811q0 0.22324 0.0165 0.37207 0.0248 0.14056 0.1323 0.27285 0.11575 0.13229 0.31419 0.13229 0.35553 0 0.78548-0.59531z" style="font-feature-settings:normal;font-variant-caps:normal;font-variant-ligatures:normal;font-variant-numeric:normal"/>
    <path d="m124.9 29v-2.6045h2.7864v2.6045zm0 11.733v-10.79h2.7864v10.79z" style="font-feature-settings:normal;font-variant-caps:normal;font-variant-ligatures:normal;font-variant-numeric:normal"/>
    <path d="m132.62 37.962v-5.3413q0-0.81856-0.63665-0.81856-0.57051 0-0.57051 0.81856v5.3413q0 0.1819 8e-3 0.30592 0.0165 0.11576 0.0661 0.28112 0.0496 0.1571 0.17363 0.23978 0.12402 0.08268 0.32246 0.08268 0.63665 0 0.63665-0.9095zm-3.9936-0.03307v-4.5889q0-1.7281 0.81029-2.6789 0.81855-0.95912 2.5466-0.95912t2.5632 0.95912q0.83509 0.95085 0.83509 2.6789v4.5889q0 1.3477-1.0004 2.1993-1.0005 0.84336-2.3978 0.84336-0.90124 0-1.6619-0.3638-0.76068-0.37207-1.232-1.0749-0.46302-0.71107-0.46302-1.604z" style="font-feature-settings:normal;font-variant-caps:normal;font-variant-ligatures:normal;font-variant-numeric:normal"/>
   </g>
  </g>
 </g>
</svg>
