<?xml version="1.0" standalone="no"?>
<!DOCTYPE svg PUBLIC "-//W3C//DTD SVG 20010904//EN"
 "http://www.w3.org/TR/2001/REC-SVG-20010904/DTD/svg10.dtd">
<svg version="1.0" xmlns="http://www.w3.org/2000/svg"
 width="600.000000pt" height="600.000000pt" viewBox="0 0 600.000000 600.000000"
 preserveAspectRatio="xMidYMid meet">
<metadata>
Created by potrace 1.11, written by Peter Selinger 2001-2013
</metadata>
<g transform="translate(0.000000,600.000000) scale(0.100000,-0.100000)"
fill="#000000" stroke="none">
<path d="M4912 5867 c-32 -15 -38 -45 -37 -191 1 -132 2 -139 24 -157 14 -11
39 -19 62 -19 l39 0 0 -187 0 -188 -40 1 c-26 1 -48 -5 -62 -16 -20 -16 -22
-27 -23 -126 l-1 -109 -2229 -1 -2230 -1 -57 -22 c-67 -26 -157 -103 -186
-160 -47 -89 -45 -31 -46 -1866 -1 -957 -5 -1745 -9 -1752 -4 -6 -3 -14 3 -18
11 -7 9 -33 -3 -53 -5 -6 -4 -12 0 -12 5 0 8 -33 8 -73 -1 -39 2 -94 6 -120
23 -141 153 -270 294 -292 22 -3 135 -6 250 -6 142 -1 215 -5 224 -12 11 -9
13 -9 8 0 -10 15 92 16 112 0 11 -9 13 -9 8 0 -10 15 133 15 152 -1 12 -8 13
-8 7 2 -6 10 1 13 30 10 22 -2 38 -8 37 -14 -1 -6 5 -11 12 -11 11 0 12 4 4
13 -8 10 -1 12 33 10 24 -1 50 -6 57 -11 10 -5 12 -4 7 3 -10 16 16 15 33 0
11 -11 12 -10 6 0 -5 10 0 13 21 10 20 -2 29 -8 28 -20 -1 -10 3 -15 8 -12 5
3 7 12 4 19 -3 10 18 12 97 11 56 -1 108 -6 116 -10 10 -6 12 -5 7 2 -10 16
16 15 33 -1 11 -10 12 -9 6 1 -5 10 0 13 21 10 20 -2 29 -8 28 -20 -1 -10 3
-15 8 -12 5 3 7 12 4 19 -4 11 9 13 57 11 34 -1 69 -6 76 -10 10 -6 12 -5 7 2
-11 17 39 15 53 -2 12 -14 35 -16 47 -3 4 3 -3 5 -14 2 -12 -2 -24 0 -27 5 -8
12 138 10 154 -3 17 -14 40 -18 46 -7 3 5 -3 7 -15 5 -11 -2 -22 0 -25 5 -3 5
24 8 60 8 48 -1 68 -5 76 -17 9 -14 10 -14 5 2 -5 15 -1 18 22 15 15 -2 27 -8
27 -15 0 -6 3 -15 7 -19 4 -3 6 3 3 14 -3 20 0 21 58 18 34 -1 69 -6 76 -10
10 -6 12 -5 7 2 -10 16 16 15 33 -1 11 -10 12 -9 6 1 -5 10 0 13 21 10 18 -2
28 -8 26 -16 -1 -8 2 -11 8 -7 6 3 8 10 5 15 -9 15 122 5 142 -10 16 -14 17
-14 4 3 -12 15 -11 17 2 17 9 0 21 -8 27 -18 11 -16 11 -16 6 1 -5 15 -1 18
22 15 15 -2 27 -8 27 -15 0 -6 3 -15 7 -19 4 -3 6 2 3 14 -3 18 2 20 48 20 28
1 58 -4 65 -11 18 -14 40 -18 47 -7 3 5 -3 7 -15 5 -11 -2 -22 0 -25 5 -8 12
138 10 154 -3 15 -13 60 -17 66 -7 3 4 -9 6 -25 5 -17 -1 -33 2 -36 7 -7 11
156 5 175 -7 10 -5 12 -4 7 3 -10 16 16 15 33 0 11 -11 12 -10 6 0 -5 10 0 13
21 10 20 -2 29 -8 28 -20 -1 -10 3 -15 8 -12 5 3 7 12 4 19 -3 10 18 12 97 11
56 -1 108 -6 116 -10 10 -6 12 -5 7 2 -10 16 16 15 33 0 11 -11 12 -10 6 0 -5
10 0 13 21 10 20 -2 29 -8 28 -20 -1 -10 3 -15 8 -12 5 3 7 12 4 19 -4 11 9
13 57 11 34 -1 69 -6 76 -10 10 -6 12 -5 7 2 -11 17 39 15 53 -2 12 -14 35
-16 47 -3 4 3 -3 5 -14 2 -12 -2 -24 0 -27 5 -8 12 138 10 154 -3 17 -14 40
-18 46 -7 3 5 -3 7 -15 5 -11 -2 -22 0 -25 5 -3 5 24 8 60 8 48 -1 68 -5 76
-17 9 -14 10 -14 5 2 -5 15 -1 18 22 15 15 -2 27 -8 27 -15 0 -6 3 -15 7 -19
4 -3 6 3 3 14 -3 20 0 21 58 18 34 -1 69 -6 76 -10 10 -6 12 -5 7 2 -10 16 16
15 33 0 11 -10 12 -10 7 -1 -11 20 175 13 200 -7 18 -14 18 -14 5 3 -12 15
-11 17 2 17 9 0 21 -8 27 -17 11 -17 11 -17 6 0 -5 15 -1 18 22 15 15 -2 27
-8 27 -15 0 -6 3 -15 7 -19 4 -3 6 3 3 14 -3 20 0 21 93 19 67 -1 96 -6 95
-14 -3 -13 22 -12 34 2 4 4 3 5 -4 1 -6 -3 -14 -2 -18 4 -11 18 136 13 156 -6
13 -12 19 -12 25 -3 4 7 3 10 -4 5 -6 -3 -13 -2 -17 3 -3 7 79 10 227 9 147 0
243 4 261 11 15 6 27 8 27 5 0 -6 55 22 106 54 66 43 131 147 141 227 3 22 10
43 17 47 6 4 7 8 1 8 -7 0 -10 619 -10 1848 1 1990 3 1906 -51 1998 -53 93
-173 169 -276 176 l-43 3 -3 107 c-3 102 -4 108 -29 128 -15 12 -36 20 -47 19
-54 -4 -52 -13 -51 186 l0 185 40 0 c28 0 49 7 63 20 21 20 22 30 22 164 0
207 27 190 -303 191 -146 0 -274 -3 -285 -8z"/>
<path d="M916 473 c-6 -14 -5 -15 5 -6 7 7 10 15 7 18 -3 3 -9 -2 -12 -12z"/>
<path d="M4495 479 c-3 -4 2 -6 10 -5 21 3 28 13 10 13 -9 0 -18 -4 -20 -8z"/>
<path d="M4860 485 c0 -2 6 -8 13 -14 10 -8 14 -7 14 2 0 8 -6 14 -14 14 -7 0
-13 -1 -13 -2z"/>
<path d="M5293 471 c0 -11 5 -18 9 -15 4 3 5 11 1 19 -7 21 -12 19 -10 -4z"/>
<path d="M656 462 c-3 -5 1 -9 9 -9 8 0 12 4 9 9 -3 4 -7 8 -9 8 -2 0 -6 -4
-9 -8z"/>
<path d="M695 460 c3 -5 8 -10 11 -10 2 0 4 5 4 10 0 6 -5 10 -11 10 -5 0 -7
-4 -4 -10z"/>
<path d="M1346 458 c3 -5 10 -6 15 -3 13 9 11 12 -6 12 -8 0 -12 -4 -9 -9z"/>
<path d="M1667 459 c7 -7 15 -10 18 -7 3 3 -2 9 -12 12 -14 6 -15 5 -6 -5z"/>
<path d="M2466 458 c3 -5 10 -6 15 -3 13 9 11 12 -6 12 -8 0 -12 -4 -9 -9z"/>
<path d="M3266 458 c3 -5 10 -6 15 -3 13 9 11 12 -6 12 -8 0 -12 -4 -9 -9z"/>
<path d="M3587 459 c7 -7 15 -10 18 -7 3 3 -2 9 -12 12 -14 6 -15 5 -6 -5z"/>
<path d="M4386 458 c3 -5 10 -6 15 -3 13 9 11 12 -6 12 -8 0 -12 -4 -9 -9z"/>
<path d="M5250 459 c0 -5 5 -7 10 -4 6 3 10 8 10 11 0 2 -4 4 -10 4 -5 0 -10
-5 -10 -11z"/>
<path d="M5580 466 c0 -2 8 -10 18 -17 15 -13 16 -12 3 4 -13 16 -21 21 -21
13z"/>
<path d="M3109 443 c-13 -16 -12 -17 4 -4 16 13 21 21 13 21 -2 0 -10 -8 -17
-17z"/>
<path d="M5115 451 c-3 -5 -2 -12 3 -15 5 -3 9 1 9 9 0 17 -3 19 -12 6z"/>
<path d="M1086 438 c3 -5 10 -6 15 -3 13 9 11 12 -6 12 -8 0 -12 -4 -9 -9z"/>
<path d="M1185 439 c-3 -4 2 -6 10 -5 21 3 28 13 10 13 -9 0 -18 -4 -20 -8z"/>
<path d="M1240 440 c-9 -6 -10 -10 -3 -10 6 0 15 5 18 10 8 12 4 12 -15 0z"/>
<path d="M1610 439 c0 -5 5 -7 10 -4 6 3 10 8 10 11 0 2 -4 4 -10 4 -5 0 -10
-5 -10 -11z"/>
<path d="M2650 439 c0 -5 5 -7 10 -4 6 3 10 8 10 11 0 2 -4 4 -10 4 -5 0 -10
-5 -10 -11z"/>
<path d="M3530 439 c0 -5 5 -7 10 -4 6 3 10 8 10 11 0 2 -4 4 -10 4 -5 0 -10
-5 -10 -11z"/>
<path d="M4570 439 c0 -5 5 -7 10 -4 6 3 10 8 10 11 0 2 -4 4 -10 4 -5 0 -10
-5 -10 -11z"/>
<path d="M4865 439 c-3 -4 2 -6 10 -5 21 3 28 13 10 13 -9 0 -18 -4 -20 -8z"/>
<path d="M4920 440 c-9 -6 -10 -10 -3 -10 6 0 15 5 18 10 8 12 4 12 -15 0z"/>
<path d="M696 421 c-3 -5 2 -15 12 -22 15 -12 16 -12 5 2 -7 9 -10 19 -6 22 3
4 4 7 0 7 -3 0 -8 -4 -11 -9z"/>
<path d="M3135 420 c3 -5 8 -10 11 -10 2 0 4 5 4 10 0 6 -5 10 -11 10 -5 0 -7
-4 -4 -10z"/>
<path d="M5095 420 c-3 -5 -1 -10 4 -10 6 0 11 5 11 10 0 6 -2 10 -4 10 -3 0
-8 -4 -11 -10z"/>
<path d="M1190 416 c0 -2 8 -10 18 -17 15 -13 16 -12 3 4 -13 16 -21 21 -21
13z"/>
<path d="M4876 407 c3 -10 9 -15 12 -12 3 3 0 11 -7 18 -10 9 -11 8 -5 -6z"/>
<path d="M1050 400 c0 -5 5 -10 11 -10 5 0 7 5 4 10 -3 6 -8 10 -11 10 -2 0
-4 -4 -4 -10z"/>
<path d="M1167 399 c7 -7 15 -10 18 -7 3 3 -2 9 -12 12 -14 6 -15 5 -6 -5z"/>
<path d="M1450 400 c0 -5 5 -10 11 -10 5 0 7 5 4 10 -3 6 -8 10 -11 10 -2 0
-4 -4 -4 -10z"/>
<path d="M1679 393 c-13 -16 -12 -17 4 -4 16 13 21 21 13 21 -2 0 -10 -8 -17
-17z"/>
<path d="M1774 396 c1 -8 5 -18 8 -22 4 -3 5 1 4 10 -1 8 -5 18 -8 22 -4 3 -5
-1 -4 -10z"/>
<path d="M3370 400 c0 -5 5 -10 11 -10 5 0 7 5 4 10 -3 6 -8 10 -11 10 -2 0
-4 -4 -4 -10z"/>
<path d="M3599 393 c-13 -16 -12 -17 4 -4 16 13 21 21 13 21 -2 0 -10 -8 -17
-17z"/>
<path d="M3694 396 c1 -8 5 -18 8 -22 4 -3 5 1 4 10 -1 8 -5 18 -8 22 -4 3 -5
-1 -4 -10z"/>
<path d="M896 382 c-2 -4 -1 -14 4 -22 7 -11 9 -9 7 8 -1 24 -3 26 -11 14z"/>
<path d="M1550 379 c0 -5 5 -7 10 -4 6 3 10 8 10 11 0 2 -4 4 -10 4 -5 0 -10
-5 -10 -11z"/>
<path d="M1854 382 c4 -3 14 -7 22 -8 9 -1 13 0 10 4 -4 3 -14 7 -22 8 -9 1
-13 0 -10 -4z"/>
<path d="M2155 380 c3 -5 8 -10 11 -10 2 0 4 5 4 10 0 6 -5 10 -11 10 -5 0 -7
-4 -4 -10z"/>
<path d="M2216 378 c3 -4 11 -5 19 -1 21 7 19 12 -4 10 -11 0 -18 -5 -15 -9z"/>
<path d="M2514 382 c4 -3 14 -7 22 -8 9 -1 13 0 10 4 -4 3 -14 7 -22 8 -9 1
-13 0 -10 -4z"/>
<path d="M2855 381 c-3 -5 -2 -12 3 -15 5 -3 9 1 9 9 0 17 -3 19 -12 6z"/>
<path d="M3115 379 c-3 -4 2 -6 10 -5 21 3 28 13 10 13 -9 0 -18 -4 -20 -8z"/>
<path d="M3175 379 c-3 -4 2 -6 10 -5 21 3 28 13 10 13 -9 0 -18 -4 -20 -8z"/>
<path d="M3470 379 c0 -5 5 -7 10 -4 6 3 10 8 10 11 0 2 -4 4 -10 4 -5 0 -10
-5 -10 -11z"/>
<path d="M3774 382 c4 -3 14 -7 22 -8 9 -1 13 0 10 4 -4 3 -14 7 -22 8 -9 1
-13 0 -10 -4z"/>
<path d="M4075 380 c3 -5 8 -10 11 -10 2 0 4 5 4 10 0 6 -5 10 -11 10 -5 0 -7
-4 -4 -10z"/>
<path d="M4136 378 c3 -4 11 -5 19 -1 21 7 19 12 -4 10 -11 0 -18 -5 -15 -9z"/>
<path d="M4434 382 c4 -3 14 -7 22 -8 9 -1 13 0 10 4 -4 3 -14 7 -22 8 -9 1
-13 0 -10 -4z"/>
<path d="M4554 382 c4 -3 14 -7 22 -8 9 -1 13 0 10 4 -4 3 -14 7 -22 8 -9 1
-13 0 -10 -4z"/>
<path d="M4775 381 c-3 -5 -2 -12 3 -15 5 -3 9 1 9 9 0 17 -3 19 -12 6z"/>
<path d="M1950 359 c0 -5 5 -7 10 -4 6 3 10 8 10 11 0 2 -4 4 -10 4 -5 0 -10
-5 -10 -11z"/>
<path d="M2910 359 c0 -5 5 -7 10 -4 6 3 10 8 10 11 0 2 -4 4 -10 4 -5 0 -10
-5 -10 -11z"/>
<path d="M3870 359 c0 -5 5 -7 10 -4 6 3 10 8 10 11 0 2 -4 4 -10 4 -5 0 -10
-5 -10 -11z"/>
<path d="M1355 331 c-3 -5 -2 -12 3 -15 5 -3 9 1 9 9 0 17 -3 19 -12 6z"/>
<path d="M1675 331 c-3 -5 -2 -12 3 -15 5 -3 9 1 9 9 0 17 -3 19 -12 6z"/>
<path d="M2270 336 c0 -2 8 -10 18 -17 15 -13 16 -12 3 4 -13 16 -21 21 -21
13z"/>
<path d="M3275 331 c-3 -5 -2 -12 3 -15 5 -3 9 1 9 9 0 17 -3 19 -12 6z"/>
<path d="M3595 331 c-3 -5 -2 -12 3 -15 5 -3 9 1 9 9 0 17 -3 19 -12 6z"/>
<path d="M4190 336 c0 -2 8 -10 18 -17 15 -13 16 -12 3 4 -13 16 -21 21 -21
13z"/>
<path d="M2156 322 c-3 -5 1 -9 9 -9 8 0 12 4 9 9 -3 4 -7 8 -9 8 -2 0 -6 -4
-9 -8z"/>
<path d="M2439 313 c-13 -16 -12 -17 4 -4 16 13 21 21 13 21 -2 0 -10 -8 -17
-17z"/>
<path d="M2636 318 c3 -5 10 -6 15 -3 13 9 11 12 -6 12 -8 0 -12 -4 -9 -9z"/>
<path d="M3186 322 c-3 -5 1 -9 9 -9 8 0 12 4 9 9 -3 4 -7 8 -9 8 -2 0 -6 -4
-9 -8z"/>
<path d="M4076 322 c-3 -5 1 -9 9 -9 8 0 12 4 9 9 -3 4 -7 8 -9 8 -2 0 -6 -4
-9 -8z"/>
<path d="M4359 313 c-13 -16 -12 -17 4 -4 9 7 17 15 17 17 0 8 -8 3 -21 -13z"/>
<path d="M4556 318 c3 -5 10 -6 15 -3 13 9 11 12 -6 12 -8 0 -12 -4 -9 -9z"/>
<path d="M2395 289 c-4 -6 -5 -12 -2 -15 2 -3 7 2 10 11 7 17 1 20 -8 4z"/>
<path d="M4315 289 c-4 -6 -5 -12 -2 -15 2 -3 7 2 10 11 7 17 1 20 -8 4z"/>
</g>
</svg>
